<svg width="20" height="20" viewBox="0 0 20 20" fill="none" xmlns="http://www.w3.org/2000/svg">
<path d="M9.58317 6.66667H16.8298C17.3505 6.66667 17.6108 6.66667 17.8014 6.7507C18.6445 7.12242 18.2676 8.05896 18.1258 8.73201C18.1003 8.85292 18.0173 8.95584 17.9012 9.01101C17.4193 9.23967 17.0817 9.67342 16.9931 10.1778L16.4993 12.9898C16.282 14.2271 16.2078 15.9953 15.1235 16.8668C14.328 17.5 13.1818 17.5 10.8894 17.5H9.11026C6.81786 17.5 5.67167 17.5 4.87617 16.8668C3.79194 15.9952 3.71766 14.2271 3.50039 12.9898L3.00656 10.1778C2.91798 9.67342 2.58045 9.23967 2.09851 9.01101C1.98231 8.95584 1.89944 8.85292 1.87396 8.73201C1.73212 8.05896 1.35517 7.12242 2.19827 6.7507C2.38887 6.66667 2.64919 6.66667 3.16981 6.66667H6.24984" stroke="#141414" stroke-width="1.5" stroke-linecap="round"/>
<path d="M11.6668 10H8.3335" stroke="#141414" stroke-width="1.5" stroke-linecap="round" stroke-linejoin="round"/>
<path d="M5.4165 9.16667L8.33317 2.5M12.4998 2.5L14.5832 6.66667" stroke="#141414" stroke-width="1.5" stroke-linecap="round"/>
</svg>
