<svg width="18" height="18" viewBox="0 0 18 18" fill="none" xmlns="http://www.w3.org/2000/svg">
<path fill-rule="evenodd" clip-rule="evenodd" d="M3.28849 4.82677C3.41343 4.58635 3.66475 4.42212 3.95443 4.42212H14.4544C14.7441 4.42212 14.9954 4.58635 15.1204 4.82677L9.20443 8.77073L3.28849 4.82677ZM1.70447 5.15774C1.70432 5.16596 1.70431 5.17417 1.70443 5.18237V12.6721C1.70443 13.9148 2.71178 14.9221 3.95443 14.9221H14.4544C15.6971 14.9221 16.7044 13.9148 16.7044 12.6721V5.18239M15.2044 6.57351V12.6721C15.2044 13.0863 14.8686 13.4221 14.4544 13.4221H3.95443C3.54021 13.4221 3.20443 13.0863 3.20443 12.6721V6.57351L8.7884 10.2962C9.04033 10.4641 9.36853 10.4641 9.62045 10.2962L15.2044 6.57351ZM16.7044 5.15772C16.6966 3.92171 15.6923 2.92212 14.4544 2.92212H3.95443C2.71658 2.92212 1.7122 3.92172 1.70447 5.15774" fill="#121212"/>
</svg>
