<svg width="20" height="20" viewBox="0 0 20 20" fill="none" xmlns="http://www.w3.org/2000/svg">
<path d="M15 5.83334C15.6454 5.96716 16.1323 6.1905 16.5237 6.56325C17.5 7.49318 17.5 8.98993 17.5 11.9833C17.5 14.9768 17.5 16.4734 16.5237 17.4034C15.5474 18.3333 13.976 18.3333 10.8333 18.3333H9.16667C6.02397 18.3333 4.45262 18.3333 3.47631 17.4034C2.5 16.4734 2.5 14.9768 2.5 11.9833C2.5 8.98993 2.5 7.49318 3.47631 6.56325C3.86765 6.1905 4.35458 5.96716 5 5.83334" stroke="#141414" stroke-width="1.25" stroke-linecap="round"/>
<path d="M10.0211 1.66709L10 11.6667M10.0211 1.66709C9.88558 1.66148 9.74925 1.70992 9.62775 1.81243C8.87242 2.45004 7.5 4.10738 7.5 4.10738M10.0211 1.66709C10.1426 1.67213 10.2635 1.72063 10.3723 1.81256C11.1276 2.4503 12.5 4.10738 12.5 4.10738" stroke="#141414" stroke-width="1.25" stroke-linecap="round" stroke-linejoin="round"/>
</svg>
