<svg width="84" height="84" viewBox="0 0 84 84" fill="none" xmlns="http://www.w3.org/2000/svg">
<path d="M84 42.0001C84 51.717 80.6308 61.1334 74.4664 68.6446C68.3021 76.1559 59.724 81.2974 50.1938 83.1931C40.6636 85.0888 30.7709 83.6213 22.2013 79.0408C13.6318 74.4603 6.91557 67.0501 3.19706 58.0728C-0.521445 49.0956 -1.01217 39.1067 1.8085 29.8082C4.62918 20.5097 10.5867 12.4768 18.666 7.0784C26.7454 1.67997 36.4466 -0.750061 46.1167 0.202363C55.7868 1.15479 64.8276 5.43073 71.6985 12.3016L68.7286 15.2715C62.5448 9.08767 54.4082 5.23932 45.705 4.38214C37.0019 3.52496 28.2708 5.71198 20.9994 10.5706C13.7281 15.4292 8.36626 22.6587 5.82765 31.0274C3.28905 39.396 3.7307 48.386 7.07736 56.4656C10.424 64.5451 16.4686 71.2143 24.1812 75.3367C31.8938 79.4592 40.7972 80.7799 49.3744 79.0738C57.9516 77.3677 65.6719 72.7403 71.2198 65.9802C76.7677 59.22 79.8 50.7453 79.8 42.0001H84Z" fill="#FFA439"/>
</svg>
