<svg width="18" height="18" viewBox="0 0 18 18" fill="none" xmlns="http://www.w3.org/2000/svg">
<path d="M16.2273 2.92963C15.4773 3.29713 14.7423 3.44638 13.9773 3.67213C13.1365 2.72338 11.89 2.67088 10.6923 3.11938C9.49455 3.56788 8.71005 4.66438 8.7273 5.92213V6.67213C6.29355 6.73438 4.12605 5.62588 2.7273 3.67213C2.7273 3.67213 -0.409205 9.24688 5.7273 11.9221C4.3233 12.8574 2.92305 13.4881 1.22729 13.4221C3.7083 14.7744 6.41205 15.2394 8.7528 14.5599C11.4378 13.7799 13.6443 11.7676 14.491 8.75338C14.7436 7.83663 14.8691 6.88952 14.8638 5.93863C14.8623 5.75188 15.9963 3.85963 16.2273 2.92888V2.92963Z" stroke="#121212" stroke-width="1.5" stroke-linecap="round" stroke-linejoin="round"/>
</svg>
