<svg width="18" height="14" viewBox="0 0 18 14" fill="none" xmlns="http://www.w3.org/2000/svg">
<g clip-path="url(#clip0_2396_651)">
<path fill-rule="evenodd" clip-rule="evenodd" d="M-0.00390625 0H25.6461V1.07734H-0.00390625V0ZM-0.00390625 2.15469H25.6461V3.23203H-0.00390625V2.15469ZM-0.00390625 4.30664H25.6461V5.38672H-0.00390625V4.30664ZM-0.00390625 6.46133H25.6461V7.53867H-0.00390625V6.46133ZM-0.00390625 8.61602H25.6461V9.69336H-0.00390625V8.61602ZM-0.00390625 10.768H25.6461V11.8453H-0.00390625V10.768ZM-0.00390625 12.9227H25.6461V14H-0.00390625V12.9227Z" fill="#BD3D44"/>
<path fill-rule="evenodd" clip-rule="evenodd" d="M-0.00390625 1.07715H25.6461V2.15449H-0.00390625V1.07715ZM-0.00390625 3.23184H25.6461V4.30645H-0.00390625V3.23184ZM-0.00390625 5.38379H25.6461V6.46113H-0.00390625V5.38379ZM-0.00390625 7.53848H25.6461V8.61582H-0.00390625V7.53848ZM-0.00390625 9.69316H25.6461V10.7705H-0.00390625V9.69316ZM-0.00390625 11.8451H25.6461V12.9225H-0.00390625V11.8451Z" fill="white"/>
<path fill-rule="evenodd" clip-rule="evenodd" d="M-0.00341797 0H10.2561V7.53867H-0.00341797V0Z" fill="#192F5D"/>
<path fill-rule="evenodd" clip-rule="evenodd" d="M0.853027 0.322754L0.947949 0.620801H1.24854L1.00596 0.804004L1.09824 1.10479L0.853027 0.918848L0.610449 1.10205L0.702734 0.804004L0.45752 0.620801H0.763379L0.853027 0.322754ZM2.56426 0.322754L2.65654 0.620801H2.95977L2.71455 0.804004L2.80684 1.10479L2.56426 0.918848L2.31904 1.10205L2.41133 0.804004L2.16875 0.620801H2.46934L2.56426 0.322754ZM4.27285 0.322754L4.36777 0.620801H4.66572L4.42314 0.804004L4.51543 1.10479L4.27022 0.918848L4.02764 1.10205L4.11992 0.804004L3.87471 0.620801H4.17793L4.27285 0.322754ZM5.98408 0.322754L6.07637 0.620801H6.37959L6.13438 0.804004L6.2293 1.10479L5.98408 0.918848L5.73887 1.10205L5.83379 0.804004L5.58857 0.620801H5.88916L5.98408 0.322754ZM7.69268 0.322754L7.7876 0.620801H8.08818L7.84561 0.804004L7.93789 1.10479L7.69268 0.918848L7.4501 1.10205L7.54238 0.804004L7.2998 0.620801H7.60039L7.69268 0.322754ZM9.40391 0.322754L9.49619 0.620801H9.79941L9.5542 0.804004L9.64912 1.10479L9.40391 0.918848L9.15869 1.10205L9.25361 0.804004L9.0084 0.620801H9.31162L9.40391 0.322754ZM1.70996 1.07744L1.80225 1.37549H2.10547L1.86025 1.55869L1.9499 1.85674L1.7126 1.67354L1.46738 1.85674L1.55439 1.55869L1.31709 1.37549H1.61768L1.70996 1.07744ZM3.41855 1.07744L3.51348 1.37549H3.81406L3.56885 1.55869L3.66377 1.85674L3.41855 1.67354L3.17334 1.85674L3.26826 1.55869L3.02305 1.37549H3.32627L3.41855 1.07744ZM5.12979 1.07744L5.22207 1.37549H5.52529L5.28008 1.55869L5.37236 1.85674L5.12979 1.67354L4.88457 1.85674L4.97686 1.55869L4.73428 1.37549H5.03486L5.12979 1.07744ZM6.83838 1.07744L6.9333 1.37549H7.23389L6.98867 1.55869L7.08359 1.85674L6.83838 1.67354L6.5958 1.85674L6.68809 1.55869L6.44287 1.37549H6.74873L6.83838 1.07744ZM8.54961 1.07744L8.64189 1.37549H8.94512L8.6999 1.55869L8.79219 1.85674L8.54961 1.67354L8.30439 1.85674L8.39668 1.55869L8.1541 1.37549H8.45469L8.54961 1.07744ZM0.853027 1.82939L0.947949 2.13291H1.24854L1.00596 2.31611L1.09824 2.61416L0.853027 2.42822L0.610449 2.61416L0.702734 2.31338L0.45752 2.13018H0.763379L0.853027 1.82939ZM2.56426 1.82939L2.65654 2.13018H2.95977L2.71455 2.31338L2.80684 2.61143L2.56426 2.42549L2.31904 2.61143L2.41133 2.31064L2.16875 2.12744H2.46934L2.56426 1.82939ZM4.27285 1.82939L4.36777 2.13018H4.66572L4.42314 2.31338L4.51543 2.61143L4.27022 2.42549L4.02764 2.61143L4.11992 2.31064L3.87471 2.12744H4.17793L4.27285 1.82939ZM5.98408 1.82939L6.07637 2.13018H6.37959L6.13438 2.31338L6.2293 2.61143L5.98408 2.42549L5.73887 2.61143L5.83379 2.31064L5.58857 2.12744H5.88916L5.98408 1.82939ZM7.69268 1.82939L7.7876 2.13018H8.08818L7.84561 2.31338L7.93789 2.61143L7.69268 2.42549L7.4501 2.61143L7.54238 2.31064L7.2998 2.12744H7.60039L7.69268 1.82939ZM9.40391 1.82939L9.49619 2.13018H9.79941L9.5542 2.31338L9.64912 2.61143L9.40391 2.42549L9.15869 2.61143L9.25361 2.31064L9.0084 2.12744H9.31162L9.40391 1.82939ZM1.70996 2.58408L1.80225 2.88213H2.10547L1.86025 3.06533L1.95254 3.36611L1.70996 3.18018L1.46475 3.36338L1.55703 3.06533L1.31445 2.88213H1.61504L1.70996 2.58408ZM3.41855 2.58408L3.51348 2.88213H3.81406L3.56885 3.06533L3.66377 3.36611L3.41855 3.18018L3.17334 3.36338L3.26826 3.06533L3.02305 2.88213H3.32627L3.41855 2.58408ZM5.12979 2.58408L5.22207 2.88213H5.52529L5.28008 3.06533L5.37236 3.36611L5.12979 3.18018L4.88457 3.36338L4.97686 3.06533L4.73428 2.88213H5.03486L5.12979 2.58408ZM6.83838 2.58408L6.9333 2.88213H7.23389L6.99131 3.06533L7.08359 3.36611L6.83838 3.18018L6.5958 3.36338L6.68809 3.06533L6.44287 2.88213H6.74873L6.83838 2.58408ZM8.54961 2.58408L8.64189 2.88213H8.94512L8.6999 3.06533L8.79219 3.36611L8.54961 3.18018L8.30439 3.36338L8.39668 3.06533L8.1541 2.88213H8.45469L8.54961 2.58408ZM0.853027 3.33877L0.947949 3.63682H1.24854L1.00596 3.82002L1.09824 4.1208L0.853027 3.93486L0.610449 4.11807L0.702734 3.82002L0.45752 3.63682H0.763379L0.853027 3.33877ZM2.56426 3.33877L2.65654 3.63682H2.95977L2.71455 3.82002L2.80684 4.11807L2.56426 3.93486L2.31904 4.11807L2.41133 3.82002L2.16875 3.63682H2.46934L2.56426 3.33877ZM4.27285 3.33877L4.36777 3.63682H4.66572L4.42314 3.82002L4.51543 4.1208L4.27022 3.93486L4.02764 4.11807L4.11992 3.82002L3.87471 3.63682H4.17793L4.27285 3.33877ZM5.98408 3.33877L6.07637 3.63682H6.37959L6.13438 3.82002L6.2293 4.1208L5.98408 3.93486L5.73887 4.11807L5.83379 3.82002L5.58857 3.63682H5.88916L5.98408 3.33877ZM7.69268 3.33877L7.7876 3.63682H8.08818L7.84561 3.82002L7.93789 4.1208L7.69268 3.93486L7.4501 4.11807L7.54238 3.82002L7.2998 3.63682H7.60039L7.69268 3.33877ZM9.40391 3.33877L9.49619 3.63682H9.79941L9.5542 3.82002L9.64912 4.1208L9.40391 3.93486L9.15869 4.11807L9.25361 3.82002L9.0084 3.63682H9.31162L9.40391 3.33877ZM1.70996 4.09346L1.80225 4.3915H2.10547L1.86025 4.57471L1.95254 4.87275L1.70996 4.68682L1.46475 4.87275L1.55703 4.57197L1.31445 4.38877H1.61504L1.70996 4.09346ZM3.41855 4.09346L3.51348 4.3915H3.81406L3.56885 4.57471L3.66377 4.87275L3.41855 4.68682L3.17334 4.87275L3.26826 4.57197L3.02305 4.38877H3.32627L3.41855 4.09346ZM5.12979 4.09346L5.22207 4.3915H5.52529L5.28008 4.57471L5.37236 4.87275L5.12979 4.68682L4.88457 4.87275L4.97686 4.57197L4.73428 4.38877H5.03486L5.12979 4.09346ZM6.83838 4.09346L6.9333 4.3915H7.23389L6.99131 4.57471L7.08359 4.87275L6.83838 4.68682L6.5958 4.87275L6.68809 4.57197L6.44287 4.38877H6.74873L6.83838 4.09346ZM8.54961 4.09346L8.64189 4.3915H8.94512L8.6999 4.57471L8.79219 4.87275L8.54961 4.68682L8.30439 4.87275L8.39668 4.57197L8.1541 4.38877H8.45469L8.54961 4.09346ZM0.853027 4.84541L0.947949 5.14619H1.24854L1.00596 5.32939L1.09824 5.62471L0.853027 5.4415L0.610449 5.62471L0.702734 5.32666L0.45752 5.14346H0.763379L0.853027 4.84541ZM2.56426 4.84541L2.65654 5.14619H2.95977L2.71455 5.32939L2.80947 5.62471L2.56426 5.4415L2.31904 5.62471L2.41396 5.32666L2.16875 5.14346H2.46934L2.56426 4.84541ZM4.27285 4.84541L4.36777 5.14619H4.66572L4.42314 5.32939L4.51543 5.62471L4.27022 5.4415L4.02764 5.62471L4.11992 5.32666L3.87471 5.14346H4.17793L4.27285 4.84541ZM5.98408 4.84541L6.07637 5.14619H6.37959L6.13438 5.32939L6.2293 5.62471L5.98408 5.4415L5.73887 5.62471L5.83379 5.32666L5.58857 5.14346H5.88916L5.98408 4.84541ZM7.69268 4.84541L7.7876 5.14619H8.08818L7.84561 5.32939L7.93789 5.62471L7.69268 5.4415L7.4501 5.62471L7.54238 5.32666L7.2998 5.14346H7.60039L7.69268 4.84541ZM9.40391 4.84541L9.49619 5.14619H9.79941L9.5542 5.32939L9.64912 5.62471L9.40391 5.4415L9.15869 5.62471L9.25361 5.32666L9.0084 5.14346H9.31162L9.40391 4.84541ZM1.70996 5.6001L1.80225 5.89814H2.10547L1.86025 6.08135L1.95254 6.38213L1.70996 6.19619L1.46475 6.37939L1.55703 6.08135L1.31445 5.89814H1.61504L1.70996 5.6001ZM3.41855 5.6001L3.51348 5.89814H3.81406L3.56885 6.08135L3.66377 6.38213L3.41855 6.19619L3.17334 6.37939L3.26826 6.08135L3.02305 5.89814H3.32627L3.41855 5.6001ZM5.12979 5.6001L5.22207 5.89814H5.52529L5.28008 6.08135L5.37236 6.38213L5.12979 6.19619L4.88457 6.37939L4.97686 6.08135L4.73428 5.89814H5.03486L5.12979 5.6001ZM6.83838 5.6001L6.9333 5.89814H7.23389L6.99131 6.08135L7.08359 6.38213L6.83838 6.19619L6.5958 6.37939L6.68809 6.08135L6.44287 5.89814H6.74873L6.83838 5.6001ZM8.54961 5.6001L8.64189 5.89814H8.94512L8.6999 6.08135L8.79219 6.38213L8.54961 6.19619L8.30439 6.37939L8.39668 6.08135L8.1541 5.89814H8.45469L8.54961 5.6001ZM0.853027 6.35478L0.947949 6.65283H1.24854L1.00596 6.83604L1.09824 7.13408L0.853027 6.95088L0.610449 7.13408L0.702734 6.8333L0.45752 6.6501H0.763379L0.853027 6.35478ZM2.56426 6.35478L2.65654 6.65283H2.95977L2.71455 6.83604L2.80947 7.13408L2.56426 6.95088L2.31904 7.13408L2.41396 6.8333L2.16875 6.6501H2.46934L2.56426 6.35478ZM4.27285 6.35478L4.36777 6.65283H4.66572L4.42842 6.83604L4.5207 7.13408L4.27549 6.95088L4.03291 7.13408L4.1252 6.8333L3.87998 6.6501H4.1832L4.27285 6.35478ZM5.98408 6.35478L6.07637 6.65283H6.37959L6.13438 6.83604L6.2293 7.13408L5.98408 6.95088L5.73887 7.13408L5.83379 6.8333L5.58857 6.6501H5.88916L5.98408 6.35478ZM7.69268 6.35478L7.7876 6.65283H8.08818L7.84561 6.83604L7.93789 7.13408L7.69268 6.95088L7.4501 7.13408L7.54238 6.8333L7.2998 6.6501H7.60039L7.69268 6.35478ZM9.40391 6.35478L9.49619 6.65283H9.79941L9.5542 6.83604L9.64912 7.13408L9.40391 6.95088L9.15869 7.13408L9.25361 6.8333L9.0084 6.6501H9.31162L9.40391 6.35478Z" fill="white"/>
</g>
<defs>
<clipPath id="clip0_2396_651">
<rect width="18" height="14" fill="white"/>
</clipPath>
</defs>
</svg>
